<?xml version="1.0" encoding="UTF-8" standalone="no"?>
<svg width="1974px" height="1034px" viewBox="0 0 1974 1034" version="1.1" xmlns="http://www.w3.org/2000/svg" xmlns:xlink="http://www.w3.org/1999/xlink" xmlns:sketch="http://www.bohemiancoding.com/sketch/ns">
    <!-- Generator: Sketch 3.0 (7573) - http://www.bohemiancoding.com/sketch -->
    <title>brad</title>
    <description>Created with Sketch.</description>
    <defs></defs>
    <g id="Page-1" stroke="none" stroke-width="1" fill="none" fill-rule="evenodd" sketch:type="MSPage">
        <path d="M966.074219,999.181641 C966.074219,999.181641 922.207031,1002.83008 896.529297,1008.88477 C870.851562,1014.93945 830.15625,1004.52344 813.050781,992.888672 C795.945312,981.253906 745.744141,968.208984 707.257812,932.482422 C668.771484,896.755859 642.810547,881.232422 630.523438,863.173828 C618.236328,845.115234 599.025391,843.533203 569.3125,799.449219 C539.599609,755.365234 532.632812,761.789062 517.720703,746.683594 C502.808594,731.578125 491.330078,713.800781 476.611328,707.246094 C461.892578,700.691406 451.947266,672.611328 414.072266,667.228516 C376.197266,661.845703 352.0625,571.658203 352.0625,571.658203 L866.701172,763.523438 L868.263672,866.734375 L966.074219,999.181641 Z" id="Path-8" fill="#FE6969" sketch:type="MSShapeGroup"></path>
        <path d="M218.972656,426.109375 C218.972656,404 300.847656,400.0625 350.160156,381.046875 C399.472656,362.03125 572.984375,316.5 899.078125,294.230469 C1225.17188,271.960938 1358.95312,259.902344 1396.72266,242.929688 C1434.49219,225.957031 1470.91797,212.800781 1510.46484,205.203125 C1550.01172,197.605469 1603.26953,186.367188 1648.02734,195.785156 C1692.78516,205.203125 1724.12109,203.34375 1757.76563,214.066406 C1768.15243,217.376725 1785.87294,221.695246 1794.47266,237.535156 C1798.87207,245.638495 1795.27163,262.447108 1798.70905,271.890831 C1810.31714,303.782041 1815.48608,339.574736 1807.77344,354 C1793.3125,381.046882 1774.78125,407.843743 1774.78125,420.652344 C1774.78125,433.460945 1733.83594,468.273445 1706.44141,494.929688 C1679.04688,521.58593 1683.13281,535.214852 1661.37891,554.535156 C1639.625,573.855461 1572.64453,622.390625 1572.64453,622.390625 L568.933594,681.894531 C568.933594,681.894531 480.378906,667.656258 447.554688,659.710938 C414.730469,651.765617 413.339844,662.22657 363.375,616.121094 C313.410156,570.015617 230.121094,565.421883 224.546875,528.039062 C218.972656,490.656242 218.972656,448.21875 218.972656,426.109375 Z" id="Path-6" fill="#FF4D4D" sketch:type="MSShapeGroup"></path>
        <path d="M794.910156,772.386719 C794.910156,772.386719 774.246094,759.537109 715.730469,744.410156 C657.214844,729.283203 602.650391,700.304688 574.236328,697.875 C545.822266,695.445312 518.060547,679.234375 520.644531,660.023438 C523.228516,640.8125 570.857422,547.552734 599.140625,516.318359 C627.423828,485.083984 665.105469,421.560547 702.394531,405.433594 C739.683594,389.306641 894.917969,313.326172 894.917969,313.326172 L1120.00195,278.097656 L1384.28516,242.875 C1384.28516,242.875 1453.16406,253.824219 1490.30276,265.4375 C1527.44147,277.050781 1555.48047,296.609377 1596.5488,317.140625 C1637.61713,337.671873 1693.93933,504.453119 1693.93942,511.574219 C1693.93951,518.695318 1633.19531,597.904297 1633.19531,597.904297 L1613.44141,590.048828 C1613.44141,590.048828 1618.8262,528.775385 1604.95508,509.001953 C1591.08395,489.228521 1561.91211,407.042969 1561.91211,407.042969 L1462.1543,359.986328 L1315.05469,374.572266 L937.550781,418.001953 L849.027344,487.779297 L790.509766,669.341797 L805.320313,750.228516" id="Path-9" fill="#FF7C7C" sketch:type="MSShapeGroup"></path>
        <path d="M547.25,691.167969 C568.917969,696.640625 579.164062,706.617188 593.058594,677.75 C606.953125,648.882812 638.636719,569.3125 653.570312,551.6875 C668.503906,534.0625 714.425776,463.386719 723.371089,450.621094 C732.316401,437.855469 762.753906,393.402344 845.363281,366.007812 C927.972656,338.613281 896.59375,340.355469 994.484375,319.863281 C1092.375,299.371094 1134.7871,290.280275 1217.43945,290.280275 C1300.09179,290.280275 1348.20312,283.21875 1402.60156,283.21875 C1430.71862,283.21875 1464.41113,282.378908 1491.42382,292.039064 C1518.43652,301.69922 1556.12115,309.148439 1570.51177,331.874025 C1594.89917,370.386454 1637.30859,402.320312 1675.51172,529.730469 C1687.93365,536.578111 1650.12109,384.386719 1650.12109,384.386719 C1650.12109,384.386719 1644.08984,312.199219 1550.14453,283.027344 C1456.19922,253.855469 1495.57031,243.824219 1398.67969,243.824219 C1383.5454,243.824219 1359.31593,238.563464 1342.48046,238.824219 C1251.53426,240.232831 1150.9676,250.958108 1102.61719,261.578125 C1045.31641,274.164062 1008.73828,283.238281 927.050781,294.042969 C845.363281,304.847656 719.585932,382.003908 686.812495,411.820314 C654.039057,441.63672 601.951174,507.468736 587.755862,529.730455 C573.560549,551.992174 489.671875,657.582017 528.050781,682.15233 C566.429687,706.722642 525.582031,685.695312 547.25,691.167969 Z" id="Path-31" fill="#9B9B9B" sketch:type="MSShapeGroup"></path>
        <path d="M1699.29098,494.416017 C1695.81832,480.914064 1654.23828,346.369139 1607.33594,325.902344 C1560.43359,305.435548 1562.58789,285.140626 1477.90039,266.58789 C1448.70147,260.191199 1410.15232,247.755089 1383.46094,244.988281 C1298.71598,236.203687 1223.98197,248.00613 1196.51563,251.175781 C1160.39844,255.34375 1051.50391,273.70703 1031.38281,278.679688 C1011.26172,283.652345 973.736328,279.179686 889.173828,298.626953 C861.649225,304.956926 861.501953,308.01172 825.294922,323.117189 C789.087891,338.222658 766.498636,353.025437 748.242188,363.552734 C721.175781,379.160158 673.3125,425.652342 653.886719,463.095703 C634.460938,500.539064 586.310547,547.449217 568.238281,612.619141 C550.166016,677.789064 565.464844,680.958983 604.513672,595.458984 C643.5625,509.958986 663.44532,483.072264 678.726563,465.361328 C694.007805,447.650392 698.869148,422.470702 734.791016,400.246094 C770.712883,378.021486 768.673835,366.123046 861.353516,332.375 C906.563602,315.912362 961.381395,307.277672 1009.0371,298.626954 C1059.07454,289.543892 1101.0858,280.426674 1130.14315,277.902345 C1183.69591,273.250001 1236.65427,281.738282 1325.2793,271.298828 C1378.76421,264.998652 1406.18783,262.184792 1435.16018,263.835937 C1454.1953,264.920756 1475.53008,266.777898 1499.62695,274.902344 C1524.43742,283.267383 1540.38902,289.874522 1558.35354,300.947267 C1584.39326,316.997305 1610.52008,342.100406 1639.40625,392.789062 C1652.8712,416.41699 1654.17482,438.025806 1659.77926,456.923829 C1674.49257,506.536712 1678.93551,521.955079 1678.93551,521.955079 C1678.93551,521.955079 1702.76363,507.91797 1699.29098,494.416017 Z" id="Path-32" fill="#4A4A4A" sketch:type="MSShapeGroup"></path>
        <path d="M1588.64844,753.476562 C1604.23438,742.753906 1625.07422,736.199219 1638.92188,686.230469 C1652.76953,636.261719 1655.93652,616.128906 1666.65918,607.492187 C1677.38184,598.855469 1686.72266,596.550781 1717.28125,529.429687 C1747.83984,462.308594 1771.92969,444.820312 1774.62109,422.507812 C1777.3125,400.195312 1610.79004,567.601562 1610.79004,567.601562 L1590.95996,634.393555 C1590.95996,634.393555 1573.0625,764.199219 1588.64844,753.476562 Z" id="Path-7" fill="#FE6969" sketch:type="MSShapeGroup"></path>
        <path d="M545.828125,682.943359 C545.828125,682.943359 554.724609,694.576172 570.332031,686.068359 C585.939453,677.560547 595.642578,619.564453 579.167969,611.404297 C562.693359,603.244141 547.392578,619.044922 533.869141,650.994141 C520.345703,682.943359 545.828125,682.943359 545.828125,682.943359 Z" id="Path-10" fill="#2E2E2E" sketch:type="MSShapeGroup"></path>
        <path d="M556.289062,659.253906 C556.289062,659.253906 562.427734,673.144531 556.003906,708.740234 C549.580078,744.335938 559.742188,785.816406 534.300781,790.15625 C508.859375,794.496094 506.90625,771.972656 511.248047,744.121094 C515.589844,716.269531 525.833984,691.960938 525.833984,684.146484 C525.833985,676.332031 535.404297,664.873047 535.404297,664.873047 L556.289062,659.253906 Z" id="Path-11" fill="#2F2F2F" sketch:type="MSShapeGroup"></path>
        <path d="M529.289063,657.666991 C527.433537,671.848138 529.299062,684.744667 542.130859,683.007812 C553.753907,681.434569 548.835938,660.076172 553.753906,656.277344 C558.671875,652.478516 581.029297,633.639648 571.163086,621.484375 C561.296875,609.329102 552.518555,619.921875 549.229492,623.133789 C547.511222,624.811755 531.3188,642.154411 529.289063,657.666991 Z" id="Path-12" fill="#4A4A4A" sketch:type="MSShapeGroup"></path>
        <path d="M516.076172,761.526367 C518.148439,755.811076 526.958984,757.171875 531.682616,758.536133 C536.768602,760.005044 545.553711,761.518555 539.128906,774.520508 C532.704102,787.522461 524.919616,782.309553 520.831055,779.1875 C516.076172,775.55664 514.620689,765.540573 516.076172,761.526367 Z" id="Path-13" fill="#9B9B9B" sketch:type="MSShapeGroup"></path>
        <path d="M1241.64062,393.761719 C1300.24609,385.46875 1420.46484,370.144531 1459.96874,370.144531 C1499.47265,370.144531 1547.67577,394.582031 1568.51171,434.128906 C1589.34765,473.675781 1620.1875,508.820313 1613.58984,602.238281 C1606.99219,695.65625 1631.91016,768.503906 1602.47656,810.175781 C1573.04297,851.847656 1526.98047,913.277344 1312.36328,945.835938 C1097.74609,978.394531 1105.04688,995.023438 1003.36719,1002.27344 C901.6875,1009.52344 869.570312,990.386719 839.21875,958.601562 C808.867187,926.816406 841,840.820312 835.789062,770.53125 C830.578125,700.242188 812.08593,550.980469 892.613281,475.023438 C973.140631,399.066406 1183.03515,402.054688 1241.64062,393.761719 Z" id="Path-14" fill="#FF4444" sketch:type="MSShapeGroup"></path>
        <path d="M1248.52051,479.19043 C1269.53418,476.671875 1315.09375,466.175781 1315.09375,493.566406 C1315.09375,520.957031 1330.55469,570.964841 1299.12109,575.480469 C1280.37438,578.173549 1252.12793,580.338724 1237.95313,580.866213 C1223.77833,581.393703 1191.23499,587.830494 1184.73047,582.504885 C1176.21138,575.529838 1175.04724,555.452419 1173.57812,540.484377 C1172.21242,526.569896 1155.78711,493.566407 1184.73047,488.578125 C1213.67383,483.589843 1227.50684,481.708985 1248.52051,479.19043 Z" id="Path-15" fill="#FE6969" sketch:type="MSShapeGroup"></path>
        <path d="M1918.10353,191.033203 C1891.79982,208.271012 1850.75781,215.804688 1850.75781,215.804688 C1850.75781,215.804688 1728.47656,158.9375 1525.01172,142.265625 C1491.42187,142.265625 1534.25781,128.875 1534.25781,128.875 L1550.92578,45.2226562 C1550.92578,45.2226562 1899.41015,82.5039062 1934.44531,131.125 C1950.61762,153.568607 1940.65535,176.254144 1918.10353,191.033203 Z" id="Path-17" fill="#FF8989" sketch:type="MSShapeGroup"></path>
        <path d="M1800.41016,332.648438 C1800.41016,332.648438 1842.73437,316.757812 1883.97656,300.824219 C1925.21875,284.890625 1949.14062,271.652344 1949.14062,238.007812 C1949.14062,204.363281 1954.92578,142.460938 1931.60156,129.542969 C1931.60156,129.542969 1953.78125,176.996094 1904.94141,190.496094 C1856.10156,203.996094 1778.53516,216.542969 1764.76953,234.558594 C1751.00391,252.574219 1800.41016,332.648438 1800.41016,332.648438 Z" id="Path-16" fill="#FE6969" sketch:type="MSShapeGroup"></path>
        <path d="M795.533203,68.2714844 L902.216797,52.0820312 L876.365234,92.5175781 L807.625,91.4765625 L795.533203,68.2714844 Z" id="Path-21" fill="#FF8181" sketch:type="MSShapeGroup"></path>
        <path d="M792.970703,191.880859 L911.982422,184.242188 L857.738281,150.054688 L792.970703,191.880859 Z" id="Path-22" fill="#FF8181" sketch:type="MSShapeGroup"></path>
        <path d="M1003.04492,63.2285156 C1003.04492,63.2285156 997.486328,43.1074219 949.910156,43.1074219 C902.333984,43.1074219 892.414062,43.0839844 876.634766,63.7480469 C860.855469,84.4121094 827.642578,85.607422 807,71.9101562 C786.357422,58.2128905 776.898437,61.1660157 759.25,64.4648438 C741.601562,67.7636718 715.923828,74.2304689 710.367187,94.0039062 C704.810547,113.777344 706.546875,212.8125 753.408203,207.5625 C800.269531,202.3125 793.326173,200.792969 816.072266,182.039062 C838.818359,163.285156 867.164063,168.167969 881.054687,177.023438 C894.945312,185.878906 904.73047,200.027344 945.841797,188.525391 C986.953124,177.023437 999.238282,179.580078 999.238281,154.576172 C999.23828,129.572266 1003.04492,63.2285156 1003.04492,63.2285156 Z" id="Path-20" fill="#FE6969" sketch:type="MSShapeGroup"></path>
        <path d="M1473.83398,40.4941406 C1473.83398,40.4941406 1430.875,23.0605469 1245.75586,36.2148437 C1060.63672,49.3691406 1028.83203,56.7968755 1000.4668,56.7968752 C972.101562,56.796875 938.609375,52.7109392 938.609375,77.8671875 C938.609375,90.3642628 941.05572,113.776392 942.625,134.779295 C944.214635,156.054624 941.943359,175.275387 962.697266,171.792967 C984.382043,168.154351 1050.4746,154.26758 1146.06641,148.517578 C1188.62318,145.95772 1246.58634,140.618867 1304.22462,137.753905 C1376.0545,134.183535 1446.27943,133.430206 1472.77148,134.779297 C1520.52149,137.210936 1473.83398,40.4941406 1473.83398,40.4941406 Z" id="Path-19" fill="#FF8181" sketch:type="MSShapeGroup"></path>
        <path d="M1458.21582,83.7119136 C1458.41306,65.2698122 1457.00783,47.155578 1461.69043,37.0859375 C1465.56543,31.845703 1472.78711,32.8837891 1479.37012,32.8837891 C1496.03928,32.8837891 1524.34876,35.1056295 1542.68261,39.8583984 C1556.18475,43.3586177 1562.83008,46.7720548 1562.83008,59.1484375 C1562.83008,70.388569 1559.68489,86.7498631 1559.74414,102.610355 C1559.80629,119.247062 1562.90568,135.306423 1555.38183,143.168949 C1551.94524,146.760238 1544.277,145.925782 1538.5,145.925781 C1522.37187,145.92578 1500.28498,142.612019 1482.98242,140.143552 C1467.58287,137.946576 1455.95605,137.457225 1455.95605,124.579102 C1455.95605,114.962111 1458.05103,99.1195508 1458.21582,83.7119136 Z" id="Path-18" fill="#FE6969" sketch:type="MSShapeGroup"></path>
        <path d="M470.941394,124.328127 C569.806911,103.966898 667.113864,91.960975 682.734375,90.8867188 C713.037109,88.8027344 774.65625,66.4257813 781.082031,90.9082031 C785.061473,106.069995 793.869813,144.877727 786.39455,170.16797 C781.799172,185.71501 781.08205,186.507814 752.054706,194.992189 C715.766436,205.598853 473.703125,208.261717 420.957031,227.402344 C397.254953,236.00341 355.206196,242.756029 314.667957,259.810579 C264.993272,280.708857 216.964114,312.364514 200.066406,323.777344 C169.378912,344.503893 162.902342,359.265625 131.691405,379.019518 C100.480467,398.77341 75.4179672,415.5 89.2656234,432.515611 C103.11328,449.531223 57.28125,432.515625 57.28125,432.515625 C57.28125,432.515625 17.3242184,404.402357 32.703125,372.089844 C48.0820316,339.77733 79.5,310.191406 103.558597,283.98047 C127.617194,257.769534 153.738275,219.499998 241.597656,186.507812 C284.167117,170.522501 378.014499,143.466304 470.941394,124.328127 Z" id="Path-23" fill="#FF8181" sketch:type="MSShapeGroup"></path>
        <path d="M230.996094,423.710938 C230.996094,423.710938 189.847656,421.277344 152.859375,430.308594 C133.458177,435.045691 106.219601,439.120128 80.8945312,432.229492 C57.9374893,425.983168 36.2480469,409.438477 36.2480469,409.438477 C36.2480469,409.438477 50.9296875,429.699219 50.9296875,462.300781 C50.9296875,494.902344 49.4414062,515.433594 140.21875,538.3125 C230.996094,561.191406 266.894531,525.503906 266.894531,525.503906 L230.996094,423.710938 Z" id="Path-24" fill="#FE6969" sketch:type="MSShapeGroup"></path>
        <path d="M837.953125,775.560547 C837.953125,757.216797 827.689453,600.117188 847.873047,561.916016 C856.430014,545.720379 867.785031,521.565955 884.119143,501.298828 C906.312828,473.761229 936.227557,451.096838 967.134766,443.919922 C988.362102,438.990754 1022.02325,428.437965 1065.61328,421.974609 C1132.20159,412.101162 1169.36854,411.054246 1221.76563,409.818359 C1246.3866,409.237626 1310.25953,397.736499 1334.26758,393.101562 C1360.05418,388.123263 1392.65194,385.523383 1416.65155,382.17804 C1448.98814,377.670593 1479.19502,377.611582 1505.9043,389.994141 C1521.59165,397.266878 1538.08611,406.086361 1550.32227,419.519531 C1562.0944,432.44328 1569.71404,449.783313 1579.39453,466.857421 C1601.33631,505.557543 1618.19141,549.859375 1614.14258,592.751953 C1614.14258,592.751953 1643.32617,484.91797 1570.43946,419.519531 C1497.55274,354.121093 1491.32617,339.578126 1402.33398,339.578125 C1313.3418,339.578124 1246.24804,354 1221.76562,354 C1197.28321,354 993.240231,383.03125 948.025391,400.222656 C902.81055,417.414062 862.917969,442.398438 836.697266,486.154297 C810.476562,529.910156 771.738282,612.048828 781.705078,697.232422 C791.671875,782.416016 787.650392,777.521484 808.597656,782.037109 C829.54492,786.552734 837.953125,793.904297 837.953125,775.560547 Z" id="Path-29" fill="#9B9B9B" sketch:type="MSShapeGroup"></path>
        <path d="M807.326172,711.810547 C807.326172,711.810547 800.957031,647.75 813.460938,604.382812 C825.964844,561.015625 829.871091,529.71875 862.082031,493.992188 C894.292971,458.265625 923.421888,416.371094 1031.77344,399.742188 C1140.12499,383.113281 1160.60548,387.710938 1194.21094,387.710938 C1227.81639,387.710938 1359.8242,361.667969 1391.73047,361.667969 C1423.63674,361.667968 1514.41016,326.395507 1603.95606,465.295901 C1603.95606,465.295899 1546.74219,340.25 1450.23828,342.566406 C1353.73437,344.882813 1350.65626,350.039063 1298.25781,360.109375 C1245.85936,370.179688 1110.12109,367.140627 1074.43359,374.390625 C1038.7461,381.640623 930.043962,394.230254 866.539062,459.777344 C836.292968,490.996092 827.380238,516.559964 816.345702,547.087889 C810.949943,562.015687 801.448678,579.548824 794.734375,612.246094 C774.289063,711.810545 793.734375,704.191406 793.734375,704.191406 L807.326172,711.810547 Z" id="Path-30" fill="#4A4A4A" sketch:type="MSShapeGroup"></path>
        <path d="M793.669922,769.0625 C793.669922,769.0625 808.603516,764.289063 808.603516,743.363281 C808.603516,722.4375 821.064453,697.800781 798.900391,697.800781 C776.736328,697.800781 772.589844,691.527344 772.589844,709.371094 C772.589844,727.214844 778.167969,776.833984 778.167969,776.833984 L793.669922,769.0625 Z" id="Path-25" fill="#383838" sketch:type="MSShapeGroup"></path>
        <path d="M780.189453,728.882812 C789.501953,731.855469 798.074219,721.257812 798.074219,776.480469 C798.074219,831.703125 812.791016,878.619141 786.787109,878.619141 C760.783203,878.619141 760.261719,856.742187 760.261719,834.710937 C760.261719,812.679687 764.298828,759.802734 772.244141,746.800781 C780.189453,733.798828 770.876953,725.910156 780.189453,728.882812 Z" id="Path-26" fill="#373737" sketch:type="MSShapeGroup"></path>
        <path d="M779.146484,843.039062 C787.113281,846.685547 790.626953,853.673828 787.154297,865.091797 C783.681641,876.509766 771.722656,866.30957 771.722656,860.1875 C771.722656,854.06543 771.179688,839.392578 779.146484,843.039062 Z" id="Path-27" fill="#9B9B9B" sketch:type="MSShapeGroup"></path>
        <path d="M783.972656,707.345703 C793.349609,707.345703 792.308594,725.292969 788.140625,731.501953 C783.972656,737.710938 790.9375,767.210938 781.736328,769.466797 C772.535156,771.722656 767.097656,756.310547 767.097656,736.40625 C767.097656,716.501953 774.595703,707.345703 783.972656,707.345703 Z" id="Path-28" fill="#4A4A4A" sketch:type="MSShapeGroup"></path>
    </g>
</svg>